<svg xmlns="http://www.w3.org/2000/svg" width="600" height="600" viewBox="0 0 600 600">
  <g id="vuesax_bulk_key" data-name="vuesax/bulk/key" transform="translate(-684 -188)">
    <g id="key" transform="translate(684 188)">
      <path id="Vector" d="M444.815,55.313c-74-73.75-194-73.75-267.5,0-51.75,51.25-67.25,125-47.25,190l-117.5,117.5c-8.25,8.5-14,25.25-12.25,37.25l7.5,54.5c2.75,18,19.5,35,37.5,37.5l54.5,7.5c12,1.75,28.75-3.75,37.25-12.5l20.5-20.5a12.376,12.376,0,0,0,0-17.75l-48.5-48.5a18.738,18.738,0,1,1,26.5-26.5l48.75,48.75a12.527,12.527,0,0,0,17.5,0l53-52.75a189.368,189.368,0,0,0,190-46.75C518.565,249.313,518.565,129.063,444.815,55.313Zm-132.25,194.5a62.5,62.5,0,1,1,62.5-62.5A62.523,62.523,0,0,1,312.565,249.813Z" transform="translate(49.936 50.188)" fill="#151521" opacity="0.4"/>
      <path id="Vector-2" data-name="Vector" d="M125,62.5A62.5,62.5,0,1,1,62.5,0,62.5,62.5,0,0,1,125,62.5Z" transform="translate(300 175)" fill="#151521"/>
      <path id="Vector-3" data-name="Vector" d="M0,0H600V600H0Z" fill="none" opacity="0"/>
    </g>
  </g>
</svg>
