<svg xmlns="http://www.w3.org/2000/svg" width="24" height="24" viewBox="0 0 24 24">
  <g id="Logo" transform="translate(-920 -80)">
    <g id="vuesax_bulk_ontology-_ont_" data-name="vuesax/bulk/ontology-(ont)" transform="translate(920 80)">
      <g id="ontology-_ont_" data-name="ontology-(ont)">
        <path id="Vector" d="M15.68,14.972a9.409,9.409,0,0,1-6.48,2.32A9.666,9.666,0,0,1,0,7.532V.5A.5.5,0,0,1,.85.152Z" transform="translate(2.22 4.708)" fill="#fff"/>
        <path id="Vector-2" data-name="Vector" d="M0,2.3A9.332,9.332,0,0,1,6.43,0a9.581,9.581,0,0,1,9.12,9.68v6.96a.5.5,0,0,1-.85.35Z" transform="translate(6.22 1.996)" fill="#ffae00"/>
        <path id="Vector-3" data-name="Vector" d="M0,0H24V24H0Z" fill="none" opacity="0"/>
      </g>
    </g>
  </g>
</svg>
