<svg xmlns="http://www.w3.org/2000/svg" width="600" height="600" viewBox="0 0 600 600">
  <g id="vuesax_bulk_setting-2" data-name="vuesax/bulk/setting-2" transform="translate(-300 -188)">
    <g id="setting-2" transform="translate(300 188)">
      <path id="Vector" d="M0,257.973v-44a47.64,47.64,0,0,1,47.5-47.5c45.25,0,63.75-32,41-71.25A47.476,47.476,0,0,1,106,30.473l43.25-24.75c19.75-11.75,45.25-4.75,57,15l2.75,4.75c22.5,39.25,59.5,39.25,82.25,0l2.75-4.75c11.75-19.75,37.25-26.75,57-15l43.25,24.75a47.476,47.476,0,0,1,17.5,64.75c-22.75,39.25-4.25,71.25,41,71.25a47.639,47.639,0,0,1,47.5,47.5v44a47.64,47.64,0,0,1-47.5,47.5c-45.25,0-63.75,32-41,71.25a47.417,47.417,0,0,1-17.5,64.75L351,466.223c-19.75,11.75-45.25,4.75-57-15l-2.75-4.75c-22.5-39.25-59.5-39.25-82.25,0l-2.75,4.75c-11.75,19.75-37.25,26.75-57,15L106,441.473a47.476,47.476,0,0,1-17.5-64.75c22.75-39.25,4.25-71.25-41-71.25A47.64,47.64,0,0,1,0,257.973Z" transform="translate(50 64.027)" fill="#151521" opacity="0.4"/>
      <path id="Vector-2" data-name="Vector" d="M162.5,81.25A81.25,81.25,0,1,1,81.25,0,81.25,81.25,0,0,1,162.5,81.25Z" transform="translate(218.75 218.75)" fill="#151521"/>
      <path id="Vector-3" data-name="Vector" d="M0,0H600V600H0Z" fill="none" opacity="0"/>
    </g>
  </g>
</svg>
