<svg xmlns="http://www.w3.org/2000/svg" width="24" height="24" viewBox="0 0 24 24">
  <g id="vuesax_bulk_text-bold" data-name="vuesax/bulk/text-bold" transform="translate(-428 -252)">
    <g id="text-bold">
      <path id="Vector" d="M20,5.81v8.38C20,17.83,17.83,20,14.19,20H5.81c-.2,0-.4-.01-.59-.02a5.779,5.779,0,0,1-3.09-1.03,4.264,4.264,0,0,1-1.08-1.08A6.143,6.143,0,0,1,0,14.19V5.81C0,2.37,1.94.24,5.22.03A5.683,5.683,0,0,1,5.81,0h8.38a6.143,6.143,0,0,1,3.68,1.05,4.264,4.264,0,0,1,1.08,1.08A6.142,6.142,0,0,1,20,5.81Z" transform="translate(430 254)" fill="#494b74" opacity="0.4" />
      <path id="Vector-2" data-name="Vector" d="M8.03,6.24A3.688,3.688,0,0,0,9,3.75,3.751,3.751,0,0,0,5.25,0H2.01A2.01,2.01,0,0,0,0,2.01v9.48A2.01,2.01,0,0,0,2.01,13.5H6.75A3.741,3.741,0,0,0,8.03,6.24ZM1.5,2.01a.512.512,0,0,1,.51-.51H5.25a2.25,2.25,0,0,1,0,4.5H1.5ZM6.75,12H2.01a.512.512,0,0,1-.51-.51V7.5H6.75a2.25,2.25,0,0,1,0,4.5Z" transform="translate(435 257.25)" fill="#494b74" />
      <path id="Vector-3" data-name="Vector" d="M0,0H24V24H0Z" transform="translate(428 252)" fill="none" opacity="0" />
    </g>
  </g>
</svg>