<svg xmlns="http://www.w3.org/2000/svg" width="24" height="24" viewBox="0 0 24 24">
  <g id="vuesax_bulk_calendar" data-name="vuesax/bulk/calendar" transform="translate(-492 -188)">
    <g id="calendar">
      <path id="Vector" d="M0,0H24V24H0Z" transform="translate(492 188)" fill="none" opacity="0"/>
      <path id="Vector-2" data-name="Vector" d="M13.711,2.31V.75a.75.75,0,0,0-1.5,0v1.5h-6.5V.75a.75.75,0,0,0-1.5,0V2.31A4.248,4.248,0,0,0,0,6.56a.5.5,0,0,0,.5.53h16.92a.5.5,0,0,0,.5-.53A4.248,4.248,0,0,0,13.711,2.31Z" transform="translate(495.039 189.25)" fill="#3699ff"/>
      <path id="Vector-3" data-name="Vector" d="M17,0a1,1,0,0,1,1,1V7.16c0,3-1.5,5-5,5H5c-3.5,0-5-2-5-5V1A1,1,0,0,1,1,0Z" transform="translate(495 197.84)" fill="#3699ff" opacity="0.4"/>
      <g id="Group">
        <path id="Vector-4" data-name="Vector" d="M1,2a1.052,1.052,0,0,1-.71-.29A1.052,1.052,0,0,1,0,1,1.052,1.052,0,0,1,.29.289,1,1,0,0,1,1.38.079a.933.933,0,0,1,.33.21A1.052,1.052,0,0,1,2,1a1.052,1.052,0,0,1-.29.71A1.052,1.052,0,0,1,1,2Z" transform="translate(499.5 201.001)" fill="#3699ff"/>
      </g>
      <g id="Group-2" data-name="Group">
        <path id="Vector-5" data-name="Vector" d="M1,2a1.052,1.052,0,0,1-.71-.29A1.052,1.052,0,0,1,0,1,1.052,1.052,0,0,1,.29.289.933.933,0,0,1,.62.079a1,1,0,0,1,1.09.21A1.052,1.052,0,0,1,2,1a1.052,1.052,0,0,1-.29.71l-.15.12a.757.757,0,0,1-.18.09.636.636,0,0,1-.18.06A1.355,1.355,0,0,1,1,2Z" transform="translate(503 201.001)" fill="#3699ff"/>
      </g>
      <g id="Group-3" data-name="Group">
        <path id="Vector-6" data-name="Vector" d="M1,2a1.052,1.052,0,0,1-.71-.29A1.052,1.052,0,0,1,0,1,1.052,1.052,0,0,1,.29.29,1.032,1.032,0,0,1,.62.08.956.956,0,0,1,1.2.02a.636.636,0,0,1,.18.06.757.757,0,0,1,.18.09l.15.12A1.052,1.052,0,0,1,2,1a1.052,1.052,0,0,1-.29.71l-.15.12a.757.757,0,0,1-.18.09.636.636,0,0,1-.18.06A1.5,1.5,0,0,1,1,2Z" transform="translate(506.5 201)" fill="#3699ff"/>
      </g>
      <g id="Group-4" data-name="Group">
        <path id="Vector-7" data-name="Vector" d="M1,2a1,1,0,0,1-.38-.08,1.032,1.032,0,0,1-.33-.21A1.052,1.052,0,0,1,0,1,1.052,1.052,0,0,1,.29.29,1.032,1.032,0,0,1,.62.08.956.956,0,0,1,1.2.02a.636.636,0,0,1,.18.06.757.757,0,0,1,.18.09l.15.12A1.052,1.052,0,0,1,2,1a1.052,1.052,0,0,1-.29.71,1.576,1.576,0,0,1-.15.12.757.757,0,0,1-.18.09.636.636,0,0,1-.18.06A1.355,1.355,0,0,1,1,2Z" transform="translate(499.5 204.5)" fill="#3699ff"/>
      </g>
      <g id="Group-5" data-name="Group">
        <path id="Vector-8" data-name="Vector" d="M1,1.987A1.052,1.052,0,0,1,.29,1.7,1.052,1.052,0,0,1,0,.987,1.052,1.052,0,0,1,.29.278a1.047,1.047,0,0,1,1.42,0A1.052,1.052,0,0,1,2,.987a1.052,1.052,0,0,1-.29.71A1.052,1.052,0,0,1,1,1.987Z" transform="translate(503 204.513)" fill="#3699ff"/>
      </g>
      <g id="Group-6" data-name="Group">
        <path id="Vector-9" data-name="Vector" d="M1,1.987A1.052,1.052,0,0,1,.29,1.7,1.052,1.052,0,0,1,0,.987,1.052,1.052,0,0,1,.29.278a1.047,1.047,0,0,1,1.42,0A1.052,1.052,0,0,1,2,.987a1.052,1.052,0,0,1-.29.71A1.052,1.052,0,0,1,1,1.987Z" transform="translate(506.5 204.513)" fill="#3699ff"/>
      </g>
    </g>
  </g>
</svg>
