<svg xmlns="http://www.w3.org/2000/svg" width="24" height="24" viewBox="0 0 24 24">
  <g id="vuesax_bulk_text-italic" data-name="vuesax/bulk/text-italic" transform="translate(-236 -252)">
    <g id="text-italic">
      <path id="Vector" d="M20,5.81v8.38C20,17.83,17.83,20,14.19,20H5.81c-.2,0-.4-.01-.59-.02a5.779,5.779,0,0,1-3.09-1.03,4.264,4.264,0,0,1-1.08-1.08A6.143,6.143,0,0,1,0,14.19V5.81C0,2.37,1.94.24,5.22.03A5.683,5.683,0,0,1,5.81,0h8.38a6.143,6.143,0,0,1,3.68,1.05,4.264,4.264,0,0,1,1.08,1.08A6.142,6.142,0,0,1,20,5.81Z" transform="translate(238 254)" fill="#494b74" opacity="0.4" />
      <path id="Vector-2" data-name="Vector" d="M8.48,0H3.1a.755.755,0,0,0-.75.75.755.755,0,0,0,.75.75H4.99L2.75,10.47h-2a.75.75,0,1,0,0,1.5H6.13a.75.75,0,1,0,0-1.5H4.29L6.53,1.5H8.48A.755.755,0,0,0,9.23.75.755.755,0,0,0,8.48,0Z" transform="translate(243.39 258.01)" fill="#494b74" />
      <path id="Vector-3" data-name="Vector" d="M0,0H24V24H0Z" transform="translate(236 252)" fill="none" opacity="0" />
    </g>
  </g>
</svg>