<svg xmlns="http://www.w3.org/2000/svg" width="24" height="24" viewBox="0 0 24 24">
  <g id="vuesax_bulk_textalign-left" data-name="vuesax/bulk/textalign-left" transform="translate(-108 -188)">
    <g id="textalign-left">
      <path id="Vector" d="M18.75,1.5H.75A.755.755,0,0,1,0,.75.755.755,0,0,1,.75,0h18a.755.755,0,0,1,.75.75A.755.755,0,0,1,18.75,1.5Z" transform="translate(110.25 191.75)" fill="#494b74"/>
      <path id="Vector-2" data-name="Vector" d="M10.22,1.5H.75A.755.755,0,0,1,0,.75.755.755,0,0,1,.75,0h9.47a.75.75,0,0,1,0,1.5Z" transform="translate(110.25 196.75)" fill="#494b74" opacity="0.4"/>
      <path id="Vector-3" data-name="Vector" d="M18.75,1.5H.75A.755.755,0,0,1,0,.75.755.755,0,0,1,.75,0h18a.755.755,0,0,1,.75.75A.755.755,0,0,1,18.75,1.5Z" transform="translate(110.25 201.75)" fill="#494b74"/>
      <path id="Vector-4" data-name="Vector" d="M10.22,1.5H.75A.755.755,0,0,1,0,.75.755.755,0,0,1,.75,0h9.47a.75.75,0,0,1,0,1.5Z" transform="translate(110.25 206.75)" fill="#494b74" opacity="0.4"/>
      <path id="Vector-5" data-name="Vector" d="M0,0H24V24H0Z" transform="translate(108 188)" fill="none" opacity="0"/>
    </g>
  </g>
</svg>
