<svg xmlns="http://www.w3.org/2000/svg" width="24" height="24" viewBox="0 0 24 24">
  <g id="vuesax_bulk_text-underline" data-name="vuesax/bulk/text-underline" transform="translate(-492 -252)">
    <g id="text-underline">
      <path id="Vector" d="M20,5.81v8.38C20,17.83,17.83,20,14.19,20H5.81c-.2,0-.4-.01-.59-.02a5.779,5.779,0,0,1-3.09-1.03,4.264,4.264,0,0,1-1.08-1.08A6.143,6.143,0,0,1,0,14.19V5.81C0,2.37,1.94.24,5.22.03A5.683,5.683,0,0,1,5.81,0h8.38a6.143,6.143,0,0,1,3.68,1.05,4.264,4.264,0,0,1,1.08,1.08A6.142,6.142,0,0,1,20,5.81Z" transform="translate(494 254)" fill="#494b74" opacity="0.4" />
      <path id="Vector-2" data-name="Vector" d="M10.41,1.5H.75A.755.755,0,0,1,0,.75.755.755,0,0,1,.75,0h9.67a.755.755,0,0,1,.75.75A.758.758,0,0,1,10.41,1.5Z" transform="translate(498.42 269.46)" fill="#494b74" />
      <path id="Vector-3" data-name="Vector" d="M5.58,11.16A5.582,5.582,0,0,1,0,5.58V.75A.755.755,0,0,1,.75,0,.755.755,0,0,1,1.5.75V5.58a4.08,4.08,0,0,0,8.16,0V.75a.75.75,0,0,1,1.5,0V5.58A5.582,5.582,0,0,1,5.58,11.16Z" transform="translate(498.42 257.04)" fill="#494b74" />
      <path id="Vector-4" data-name="Vector" d="M0,0H24V24H0Z" transform="translate(492 252)" fill="none" opacity="0" />
    </g>
  </g>
</svg>