<svg id="vuesax_bulk_flash-circle" data-name="vuesax/bulk/flash-circle" xmlns="http://www.w3.org/2000/svg" width="93.858" height="93.858" viewBox="0 0 93.858 93.858">
  <g id="flash-circle" transform="translate(0 0)">
    <path id="Vector" d="M78.215,39.107A39.107,39.107,0,1,1,39.107,0,39.107,39.107,0,0,1,78.215,39.107Z" transform="translate(7.704 7.821)" fill="#f64e60" opacity="0.4"/>
    <path id="Vector-2" data-name="Vector" d="M28.347,18.753H21.7V3.267c0-3.6-1.955-4.341-4.341-1.643L15.637,3.579,1.089,20.122C-.905,22.39-.084,24.228,2.927,24.228H9.575V39.715c0,3.6,1.955,4.341,4.341,1.643L15.637,39.4,30.185,22.859C32.179,20.591,31.358,18.753,28.347,18.753Z" transform="translate(31.292 25.438)" fill="#f64e60"/>
    <path id="Vector-3" data-name="Vector" d="M0,0H93.858V93.858H0Z" fill="none" opacity="0"/>
  </g>
</svg>
