<svg xmlns="http://www.w3.org/2000/svg" width="61" height="61" viewBox="0 0 61 61">
  <g id="vuesax_bulk_receipt-2" data-name="vuesax/bulk/receipt-2" transform="translate(-492 -380)">
    <g id="receipt-2" transform="translate(492 380)">
      <path id="Vector" d="M0,0H61V61H0Z" fill="none" opacity="0"/>
      <path id="Vector-2" data-name="Vector" d="M43.208,12.81V38.023c0,3.863-.356,6.608-1.271,8.565a.193.193,0,0,1-.051.1,2.648,2.648,0,0,1-2.16,1.068c-1.347,0-2.974-.89-4.727-2.77a4.493,4.493,0,0,0-7.117.381l-2.567,3.406A4.65,4.65,0,0,1,21.6,50.833a4.65,4.65,0,0,1-3.711-2.059L15.3,45.343a4.471,4.471,0,0,0-7.066-.381l-.025.025C5.337,48.063,2.8,48.52,1.322,46.69a.193.193,0,0,1-.051-.1C.356,44.632,0,41.887,0,38.023V12.81C0,8.947.356,6.2,1.271,4.245c0-.025,0-.051.051-.076C2.77,2.313,5.337,2.77,8.21,5.846l.025.025A4.471,4.471,0,0,0,15.3,5.49l2.592-3.431A4.65,4.65,0,0,1,21.6,0a4.65,4.65,0,0,1,3.711,2.059l2.567,3.406A4.493,4.493,0,0,0,35,5.846c1.754-1.881,3.38-2.77,4.727-2.77a2.673,2.673,0,0,1,2.16,1.093c.051.025.051.051.051.076C42.852,6.2,43.208,8.947,43.208,12.81Z" transform="translate(7.625 5.083)" fill="#0bb783" opacity="0.4"/>
      <g id="Group" transform="translate(18.427 24.146)">
        <path id="Vector-3" data-name="Vector" d="M22.24,3.813H1.906A1.92,1.92,0,0,1,0,1.906,1.92,1.92,0,0,1,1.906,0H22.24a1.92,1.92,0,0,1,1.906,1.906A1.92,1.92,0,0,1,22.24,3.813Z" fill="#0bb783"/>
      </g>
      <g id="Group-2" data-name="Group" transform="translate(18.427 33.042)">
        <path id="Vector-4" data-name="Vector" d="M17.156,3.813H1.906A1.92,1.92,0,0,1,0,1.906,1.92,1.92,0,0,1,1.906,0h15.25a1.92,1.92,0,0,1,1.906,1.906A1.92,1.92,0,0,1,17.156,3.813Z" fill="#0bb783"/>
      </g>
    </g>
  </g>
</svg>
