<svg xmlns="http://www.w3.org/2000/svg" width="24" height="24" viewBox="0 0 24 24">
  <g id="vuesax_bulk_document-text" data-name="vuesax/bulk/document-text" transform="translate(-172 -188)">
    <g id="document-text">
      <path id="Vector" d="M18,8.19H15.11a4.306,4.306,0,0,1-4.3-4.3V1a1,1,0,0,0-1-1H5.57A5.277,5.277,0,0,0,0,5.57v8.86A5.277,5.277,0,0,0,5.57,20h7.86A5.277,5.277,0,0,0,19,14.43V9.19A1,1,0,0,0,18,8.19Z" transform="translate(174.5 190)" fill="#0bb783" opacity="0.4"/>
      <path id="Vector-2" data-name="Vector" d="M1.12.195A.654.654,0,0,0,0,.635v3.49a2.726,2.726,0,0,0,2.75,2.67c.95.01,2.27.01,3.4.01a.631.631,0,0,0,.47-1.07C5.18,4.285,2.6,1.675,1.12.195Z" transform="translate(186.68 190.015)" fill="#0bb783"/>
      <path id="Vector-3" data-name="Vector" d="M6.75,1.5h-6A.755.755,0,0,1,0,.75.755.755,0,0,1,.75,0h6A.755.755,0,0,1,7.5.75.755.755,0,0,1,6.75,1.5Z" transform="translate(178.75 200.25)" fill="#0bb783"/>
      <path id="Vector-4" data-name="Vector" d="M4.75,1.5h-4A.755.755,0,0,1,0,.75.755.755,0,0,1,.75,0h4A.755.755,0,0,1,5.5.75.755.755,0,0,1,4.75,1.5Z" transform="translate(178.75 204.25)" fill="#0bb783"/>
      <path id="Vector-5" data-name="Vector" d="M0,0H24V24H0Z" transform="translate(172 188)" fill="none" opacity="0"/>
    </g>
  </g>
</svg>
